<svg width="364" height="115" viewBox="0 0 364 115" fill="none" xmlns="http://www.w3.org/2000/svg">
<rect width="364" height="115" rx="10" fill="url(#paint0_linear_1036_2474)"/>
<mask id="mask0_1036_2474" style="mask-type:alpha" maskUnits="userSpaceOnUse" x="0" y="0" width="364" height="115">
<rect width="364" height="115" rx="10" fill="#27AE60"/>
</mask>
<g mask="url(#mask0_1036_2474)">
<circle opacity="0.2" cx="57" cy="58" r="111" fill="white"/>
<circle opacity="0.6" cx="57.0004" cy="57.9999" r="77.5922" fill="white"/>
<path d="M53.291 15.2482C57.4617 10.7858 64.5383 10.7858 68.7089 15.2482L72.3639 19.1589C74.4441 21.3846 77.3846 22.6026 80.4293 22.4997L85.779 22.3189C91.8835 22.1126 96.8874 27.1165 96.6811 33.221L96.5003 38.5707C96.3974 41.6154 97.6154 44.5559 99.8411 46.6361L103.752 50.2911C108.214 54.4617 108.214 61.5383 103.752 65.7089L99.8411 69.3639C97.6155 71.4441 96.3974 74.3846 96.5003 77.4293L96.6811 82.779C96.8874 88.8835 91.8835 93.8874 85.779 93.6811L80.4293 93.5003C77.3846 93.3974 74.4441 94.6154 72.3639 96.8411L68.7089 100.752C64.5383 105.214 57.4617 105.214 53.2911 100.752L49.6361 96.8411C47.5559 94.6155 44.6154 93.3974 41.5707 93.5003L36.221 93.6811C30.1165 93.8874 25.1126 88.8835 25.3189 82.779L25.4997 77.4293C25.6026 74.3846 24.3846 71.4441 22.1589 69.3639L18.2482 65.709C13.7858 61.5383 13.7858 54.4617 18.2482 50.2911L22.1589 46.6361C24.3846 44.5559 25.6026 41.6154 25.4997 38.5707L25.3189 33.221C25.1126 27.1165 30.1165 22.1126 36.221 22.3189L41.5707 22.4997C44.6154 22.6026 47.5559 21.3846 49.6361 19.1589L53.291 15.2482Z" fill="white"/>
</g>
<path d="M182.847 60.9159C181.527 60.9159 180.281 60.7274 179.108 60.3504C177.956 59.9734 176.899 59.4394 175.935 58.7483C174.993 58.0362 174.176 57.1984 173.485 56.2351C172.815 55.2717 172.291 54.2035 171.914 53.0307C171.537 51.8369 171.349 50.5594 171.349 49.1981C171.349 47.8368 171.537 46.5592 171.914 45.3654C172.291 44.1717 172.825 43.0826 173.516 42.0983C174.207 41.1139 175.035 40.2762 175.998 39.5851C176.962 38.873 178.019 38.3285 179.171 37.9515C180.344 37.5535 181.59 37.3546 182.909 37.3546C184.396 37.3546 185.779 37.5954 187.056 38.0771C188.334 38.5588 189.454 39.25 190.418 40.1505C191.402 41.0511 192.166 42.1401 192.711 43.4177L188.187 44.8C187.622 43.7947 186.889 43.0198 185.988 42.4752C185.108 41.9307 184.082 41.6585 182.909 41.6585C181.946 41.6585 181.056 41.8469 180.239 42.2239C179.422 42.58 178.71 43.1035 178.103 43.7947C177.496 44.4649 177.024 45.2502 176.689 46.1508C176.354 47.0514 176.187 48.0357 176.187 49.1038C176.187 50.1929 176.354 51.1982 176.689 52.1197C177.024 53.0412 177.496 53.837 178.103 54.5072C178.731 55.1774 179.464 55.701 180.302 56.078C181.14 56.434 182.061 56.612 183.067 56.612C184.135 56.612 185.088 56.4131 185.925 56.0151C186.763 55.6172 187.444 55.0622 187.967 54.3501C188.491 53.6381 188.815 52.8003 188.941 51.8369H183.381V47.9729H193.748V50.329C193.748 51.8788 193.475 53.303 192.931 54.6015C192.407 55.9 191.664 57.0204 190.7 57.9629C189.737 58.9053 188.585 59.6384 187.245 60.1619C185.904 60.6646 184.438 60.9159 182.847 60.9159ZM204.768 60.7588C203.533 60.7588 202.391 60.5494 201.344 60.1305C200.318 59.6907 199.428 59.0834 198.674 58.3084C197.92 57.5126 197.333 56.5806 196.914 55.5125C196.496 54.4234 196.286 53.2401 196.286 51.9626C196.286 50.7269 196.496 49.5751 196.914 48.5069C197.333 47.4388 197.909 46.5173 198.642 45.7424C199.396 44.9466 200.276 44.3287 201.281 43.8889C202.286 43.4491 203.375 43.2292 204.548 43.2292C205.763 43.2292 206.863 43.4386 207.847 43.8575C208.852 44.2764 209.711 44.8733 210.423 45.6482C211.135 46.4231 211.68 47.3446 212.057 48.4127C212.454 49.4808 212.653 50.6746 212.653 51.994V53.0935H200.747C200.936 54.3292 201.386 55.3031 202.098 56.0151C202.81 56.7063 203.711 57.0518 204.8 57.0518C205.554 57.0518 206.234 56.8738 206.842 56.5178C207.47 56.1617 207.983 55.6486 208.381 54.9784L212.308 56.2351C211.931 57.1775 211.365 57.9838 210.611 58.654C209.857 59.3242 208.978 59.8478 207.973 60.2248C206.967 60.5808 205.899 60.7588 204.768 60.7588ZM204.548 46.622C203.585 46.622 202.768 46.9362 202.098 47.5645C201.449 48.1928 201.019 49.0515 200.81 50.1405H208.13C207.962 49.0515 207.554 48.1928 206.904 47.5645C206.276 46.9362 205.491 46.622 204.548 46.622ZM222.393 60.7588C221.241 60.7588 220.246 60.5389 219.409 60.0991C218.592 59.6384 217.953 58.9786 217.492 58.12C217.052 57.2613 216.833 56.2141 216.833 54.9784V47.2503H214.005V43.7004H216.833V38.0457H221.231V43.7004H225.754V47.2503H221.231V54.4444C221.231 55.2402 221.398 55.8581 221.733 56.2979C222.068 56.7167 222.582 56.9262 223.273 56.9262C223.629 56.9262 224.006 56.8738 224.404 56.7691C224.822 56.6644 225.22 56.5283 225.597 56.3607L226.383 59.6593C225.838 59.9944 225.231 60.2562 224.561 60.4447C223.89 60.6541 223.168 60.7588 222.393 60.7588ZM240.346 60.2876L234.125 43.7004H238.932L242.639 55.6382L246.409 43.7004H251.058L244.838 60.2876H240.346ZM260.42 60.7588C259.184 60.7588 258.042 60.5494 256.995 60.1305C255.969 59.6907 255.079 59.0834 254.325 58.3084C253.571 57.5126 252.985 56.5806 252.566 55.5125C252.147 54.4234 251.937 53.2401 251.937 51.9626C251.937 50.7269 252.147 49.5751 252.566 48.5069C252.985 47.4388 253.561 46.5173 254.294 45.7424C255.048 44.9466 255.927 44.3287 256.932 43.8889C257.938 43.4491 259.027 43.2292 260.2 43.2292C261.414 43.2292 262.514 43.4386 263.498 43.8575C264.503 44.2764 265.362 44.8733 266.074 45.6482C266.786 46.4231 267.331 47.3446 267.708 48.4127C268.106 49.4808 268.305 50.6746 268.305 51.994V53.0935H256.398C256.587 54.3292 257.037 55.3031 257.749 56.0151C258.461 56.7063 259.362 57.0518 260.451 57.0518C261.205 57.0518 261.886 56.8738 262.493 56.5178C263.121 56.1617 263.634 55.6486 264.032 54.9784L267.959 56.2351C267.582 57.1775 267.017 57.9838 266.263 58.654C265.509 59.3242 264.629 59.8478 263.624 60.2248C262.619 60.5808 261.55 60.7588 260.42 60.7588ZM260.2 46.622C259.236 46.622 258.419 46.9362 257.749 47.5645C257.1 48.1928 256.671 49.0515 256.461 50.1405H263.781C263.613 49.0515 263.205 48.1928 262.556 47.5645C261.927 46.9362 261.142 46.622 260.2 46.622ZM271.034 60.2876V43.7004H275.087L275.244 46.2136C275.663 45.334 276.228 44.6638 276.94 44.2031C277.653 43.7214 278.49 43.4805 279.454 43.4805C279.747 43.4805 280.04 43.5119 280.333 43.5748C280.626 43.6167 280.888 43.6795 281.119 43.7633L280.647 48.0985C280.417 48.0148 280.176 47.9624 279.925 47.9415C279.694 47.8996 279.454 47.8786 279.202 47.8786C277.988 47.8786 277.056 48.2556 276.406 49.0096C275.757 49.7426 275.433 50.7898 275.433 52.1511V60.2876H271.034ZM288.233 39.2081C288.233 39.6898 288.118 40.1191 287.887 40.4961C287.678 40.8731 287.374 41.1768 286.976 41.4071C286.599 41.6166 286.18 41.7213 285.72 41.7213C285.259 41.7213 284.83 41.6166 284.432 41.4071C284.055 41.1768 283.751 40.8731 283.521 40.4961C283.311 40.1191 283.207 39.6898 283.207 39.2081C283.207 38.7264 283.311 38.297 283.521 37.9201C283.751 37.5431 284.055 37.2499 284.432 37.0404C284.83 36.8101 285.259 36.6949 285.72 36.6949C286.18 36.6949 286.599 36.8101 286.976 37.0404C287.374 37.2499 287.678 37.5431 287.887 37.9201C288.118 38.297 288.233 38.7264 288.233 39.2081ZM283.521 60.2876V43.7004H287.919V60.2876H283.521ZM293.069 60.2876V47.1561H290.242V43.7004H293.069V42.758C293.069 41.8365 293.206 40.9987 293.478 40.2448C293.771 39.4908 294.179 38.8416 294.703 38.297C295.227 37.7316 295.844 37.3022 296.556 37.009C297.289 36.6949 298.096 36.5378 298.975 36.5378C299.583 36.5378 300.138 36.6111 300.64 36.7577C301.143 36.9043 301.583 37.0823 301.96 37.2918L301.08 40.6218C300.85 40.538 300.609 40.4542 300.358 40.3704C300.106 40.2867 299.834 40.2448 299.541 40.2448C298.85 40.2448 298.326 40.4856 297.97 40.9673C297.635 41.449 297.467 42.1401 297.467 43.0407V43.7004H308.211V60.2876H303.813V47.1561H297.467V60.2876H293.069ZM308.526 39.2081C308.526 39.6898 308.41 40.1191 308.18 40.4961C307.971 40.8731 307.667 41.1768 307.269 41.4071C306.892 41.6166 306.473 41.7213 306.012 41.7213C305.552 41.7213 305.122 41.6166 304.724 41.4071C304.347 41.1768 304.044 40.8731 303.813 40.4961C303.604 40.1191 303.499 39.6898 303.499 39.2081C303.499 38.7264 303.604 38.297 303.813 37.9201C304.044 37.5431 304.347 37.2499 304.724 37.0404C305.122 36.8101 305.552 36.6949 306.012 36.6949C306.473 36.6949 306.892 36.8101 307.269 37.0404C307.667 37.2499 307.971 37.5431 308.18 37.9201C308.41 38.297 308.526 38.7264 308.526 39.2081ZM319.599 60.7588C318.363 60.7588 317.222 60.5494 316.175 60.1305C315.148 59.6907 314.258 59.0834 313.504 58.3084C312.75 57.5126 312.164 56.5806 311.745 55.5125C311.326 54.4234 311.117 53.2401 311.117 51.9626C311.117 50.7269 311.326 49.5751 311.745 48.5069C312.164 47.4388 312.74 46.5173 313.473 45.7424C314.227 44.9466 315.107 44.3287 316.112 43.8889C317.117 43.4491 318.206 43.2292 319.379 43.2292C320.594 43.2292 321.693 43.4386 322.678 43.8575C323.683 44.2764 324.542 44.8733 325.254 45.6482C325.966 46.4231 326.51 47.3446 326.887 48.4127C327.285 49.4808 327.484 50.6746 327.484 51.994V53.0935H315.578C315.766 54.3292 316.217 55.3031 316.929 56.0151C317.641 56.7063 318.541 57.0518 319.63 57.0518C320.384 57.0518 321.065 56.8738 321.672 56.5178C322.301 56.1617 322.814 55.6486 323.212 54.9784L327.139 56.2351C326.762 57.1775 326.196 57.9838 325.442 58.654C324.688 59.3242 323.809 59.8478 322.803 60.2248C321.798 60.5808 320.73 60.7588 319.599 60.7588ZM319.379 46.622C318.416 46.622 317.599 46.9362 316.929 47.5645C316.279 48.1928 315.85 49.0515 315.641 50.1405H322.96C322.793 49.0515 322.384 48.1928 321.735 47.5645C321.107 46.9362 320.321 46.622 319.379 46.622ZM337.341 60.7588C336.273 60.7588 335.278 60.5389 334.357 60.0991C333.435 59.6593 332.629 59.0519 331.938 58.277C331.247 57.4812 330.702 56.5597 330.304 55.5125C329.927 54.4653 329.739 53.3239 329.739 52.0883C329.739 50.8317 329.938 49.6693 330.336 48.6012C330.734 47.5331 331.289 46.6011 332.001 45.8052C332.713 44.9885 333.54 44.3601 334.483 43.9203C335.446 43.4596 336.483 43.2292 337.593 43.2292C338.619 43.2292 339.551 43.4386 340.389 43.8575C341.247 44.2554 341.959 44.8209 342.525 45.5539V36.8519H346.923V60.2876H342.87L342.745 57.8686C342.158 58.7692 341.394 59.4813 340.451 60.0049C339.53 60.5075 338.493 60.7588 337.341 60.7588ZM338.409 56.8005C339.205 56.8005 339.917 56.5911 340.546 56.1722C341.174 55.7534 341.666 55.1879 342.022 54.4758C342.399 53.7428 342.588 52.9155 342.588 51.994C342.588 51.0725 342.399 50.2557 342.022 49.5436C341.666 48.8106 341.174 48.2347 340.546 47.8158C339.917 47.3969 339.205 47.1875 338.409 47.1875C337.614 47.1875 336.902 47.3969 336.273 47.8158C335.645 48.2347 335.142 48.8106 334.765 49.5436C334.409 50.2557 334.231 51.0725 334.231 51.994C334.231 52.9155 334.409 53.7428 334.765 54.4758C335.142 55.1879 335.645 55.7534 336.273 56.1722C336.902 56.5911 337.614 56.8005 338.409 56.8005Z" fill="white"/>
<path d="M162.635 82.6332C162.136 82.6332 161.674 82.5584 161.25 82.4087C160.839 82.259 160.477 82.0469 160.165 81.7725C159.853 81.4981 159.61 81.1738 159.435 80.7996C159.261 80.4254 159.173 80.0138 159.173 79.5647C159.173 78.941 159.336 78.3984 159.66 77.9369C159.997 77.4629 160.464 77.095 161.063 76.833C161.662 76.5711 162.36 76.4401 163.159 76.4401C163.595 76.4401 164.013 76.4838 164.412 76.5711C164.811 76.6459 165.192 76.7582 165.554 76.9079V76.2904C165.554 75.8539 165.473 75.4734 165.31 75.1491C165.148 74.8123 164.917 74.5504 164.618 74.3633C164.319 74.1762 163.957 74.0826 163.533 74.0826C163.084 74.0826 162.678 74.2011 162.317 74.4381C161.955 74.6751 161.687 75.0057 161.512 75.4298L159.529 74.9807C159.679 74.4319 159.947 73.9579 160.333 73.5587C160.733 73.1596 161.207 72.8478 161.755 72.6232C162.317 72.3987 162.922 72.2864 163.57 72.2864C164.182 72.2864 164.737 72.3862 165.236 72.5858C165.747 72.7854 166.184 73.066 166.545 73.4278C166.907 73.7895 167.188 74.2198 167.387 74.7188C167.587 75.2177 167.687 75.7728 167.687 76.384V82.3525H165.722L165.647 81.0615C165.385 81.5355 164.992 81.916 164.468 82.2029C163.945 82.4897 163.333 82.6332 162.635 82.6332ZM161.344 79.4712C161.344 79.7456 161.419 79.9951 161.568 80.2196C161.718 80.4316 161.924 80.6 162.186 80.7248C162.46 80.8495 162.778 80.9119 163.14 80.9119C163.601 80.9119 164.013 80.8121 164.375 80.6125C164.737 80.4129 165.023 80.1447 165.236 79.808C165.448 79.4587 165.554 79.0658 165.554 78.6292V78.4047C165.229 78.2675 164.893 78.1615 164.543 78.0866C164.206 77.9993 163.857 77.9556 163.495 77.9556C162.847 77.9556 162.323 78.0928 161.924 78.3673C161.537 78.6417 161.344 79.0096 161.344 79.4712ZM170.001 82.3525V72.5671H171.966L172.041 73.9142C172.328 73.4153 172.727 73.0224 173.238 72.7355C173.762 72.4361 174.361 72.2864 175.034 72.2864C175.77 72.2864 176.406 72.4611 176.943 72.8103C177.492 73.1596 177.916 73.6523 178.215 74.2884C178.514 74.9246 178.664 75.673 178.664 76.5337V82.3525H176.512V76.7769C176.512 75.9786 176.332 75.3549 175.97 74.9059C175.621 74.4568 175.128 74.2323 174.492 74.2323C174.043 74.2323 173.637 74.3383 173.276 74.5504C172.926 74.7624 172.652 75.0493 172.452 75.4111C172.253 75.7728 172.153 76.1906 172.153 76.6646V82.3525H170.001ZM185.117 82.6332C184.469 82.6332 183.864 82.5022 183.303 82.2403C182.754 81.9783 182.274 81.6166 181.862 81.1551C181.45 80.6936 181.126 80.151 180.889 79.5273C180.664 78.9036 180.552 78.2301 180.552 77.5066C180.552 76.7707 180.671 76.0846 180.908 75.4485C181.145 74.8123 181.475 74.2573 181.899 73.7833C182.323 73.3093 182.816 72.9413 183.377 72.6794C183.951 72.4174 184.569 72.2864 185.23 72.2864C185.878 72.2864 186.471 72.4237 187.007 72.6981C187.544 72.9725 187.986 73.3592 188.336 73.8581V68.4321H190.487V82.3525H188.523L188.429 80.7809C188.08 81.3547 187.618 81.8099 187.045 82.1467C186.471 82.471 185.828 82.6332 185.117 82.6332ZM185.567 80.6873C186.103 80.6873 186.583 80.5501 187.007 80.2757C187.431 79.9888 187.762 79.6021 187.999 79.1157C188.248 78.6292 188.373 78.0804 188.373 77.4692C188.373 76.8455 188.248 76.2904 187.999 75.804C187.762 75.3175 187.431 74.9371 187.007 74.6626C186.583 74.3758 186.103 74.2323 185.567 74.2323C185.03 74.2323 184.55 74.3758 184.126 74.6626C183.702 74.9371 183.365 75.3175 183.115 75.804C182.878 76.2904 182.76 76.8455 182.76 77.4692C182.76 78.0804 182.878 78.6292 183.115 79.1157C183.365 79.6021 183.702 79.9888 184.126 80.2757C184.55 80.5501 185.03 80.6873 185.567 80.6873ZM200.866 82.1654C200.23 82.1654 199.638 82.0407 199.089 81.7912C198.54 81.5418 198.06 81.1987 197.648 80.7622C197.237 80.3131 196.918 79.7955 196.694 79.2092C196.469 78.6105 196.357 77.9619 196.357 77.2634C196.357 76.5648 196.469 75.9162 196.694 75.3175C196.931 74.7063 197.262 74.1762 197.686 73.7271C198.11 73.2781 198.602 72.9288 199.164 72.6794C199.725 72.4174 200.33 72.2864 200.979 72.2864C201.652 72.2864 202.263 72.4361 202.812 72.7355C203.374 73.0224 203.823 73.4278 204.159 73.9517L204.234 72.5671H206.199V81.3235C206.199 82.0719 206.08 82.7517 205.843 83.3629C205.606 83.9866 205.269 84.5167 204.833 84.9533C204.396 85.4023 203.872 85.7453 203.261 85.9823C202.663 86.2193 201.989 86.3378 201.241 86.3378C200.243 86.3378 199.37 86.1133 198.621 85.6642C197.873 85.2152 197.286 84.5915 196.862 83.7932L198.902 83.0822C199.176 83.5313 199.519 83.8681 199.931 84.0926C200.342 84.3296 200.804 84.4481 201.315 84.4481C201.864 84.4481 202.344 84.3233 202.756 84.0739C203.168 83.8369 203.486 83.4939 203.71 83.0448C203.935 82.6082 204.047 82.0906 204.047 81.4919V80.5564C203.698 81.0553 203.249 81.4482 202.7 81.7351C202.151 82.022 201.54 82.1654 200.866 82.1654ZM201.315 80.2196C201.839 80.2196 202.307 80.0886 202.719 79.8267C203.143 79.5647 203.473 79.2092 203.71 78.7602C203.96 78.3111 204.084 77.7997 204.084 77.2259C204.084 76.6522 203.96 76.1408 203.71 75.6917C203.473 75.2427 203.143 74.8872 202.719 74.6252C202.307 74.3633 201.839 74.2323 201.315 74.2323C200.791 74.2323 200.324 74.3633 199.912 74.6252C199.5 74.8872 199.17 75.2427 198.92 75.6917C198.683 76.1408 198.565 76.6522 198.565 77.2259C198.565 77.7997 198.683 78.3111 198.92 78.7602C199.17 79.2092 199.5 79.5647 199.912 79.8267C200.324 80.0886 200.791 80.2196 201.315 80.2196ZM213.065 82.6332C212.341 82.6332 211.674 82.5085 211.063 82.259C210.464 81.997 209.94 81.6353 209.491 81.1738C209.042 80.7123 208.693 80.1697 208.443 79.546C208.206 78.9099 208.088 78.2113 208.088 77.4505C208.088 76.7145 208.206 76.0347 208.443 75.4111C208.693 74.7874 209.029 74.2448 209.453 73.7833C209.89 73.3093 210.401 72.9413 210.988 72.6794C211.574 72.4174 212.21 72.2864 212.896 72.2864C213.582 72.2864 214.206 72.4112 214.767 72.6607C215.341 72.8976 215.834 73.2407 216.245 73.6897C216.669 74.1388 216.994 74.6751 217.218 75.2988C217.443 75.91 217.555 76.5898 217.555 77.3382V77.9744H210.314C210.376 78.5481 210.526 79.0471 210.763 79.4712C211.013 79.8828 211.331 80.2009 211.717 80.4254C212.104 80.6499 212.553 80.7622 213.065 80.7622C214.087 80.7622 214.886 80.3069 215.459 79.3963L217.349 80.126C217.125 80.6374 216.794 81.0865 216.358 81.4732C215.933 81.8474 215.434 82.1343 214.861 82.3338C214.299 82.5334 213.701 82.6332 213.065 82.6332ZM212.896 74.0265C212.46 74.0265 212.067 74.1263 211.717 74.3259C211.381 74.5254 211.094 74.8061 210.857 75.1678C210.62 75.5296 210.458 75.9536 210.37 76.4401H215.31C215.235 75.9536 215.091 75.5296 214.879 75.1678C214.667 74.8061 214.387 74.5254 214.037 74.3259C213.701 74.1263 213.32 74.0265 212.896 74.0265ZM223.358 82.6332C222.372 82.6332 221.599 82.3525 221.038 81.7912C220.477 81.2175 220.196 80.4004 220.196 79.3402V74.3072H218.475V72.5671H220.196V69.2554H222.348V72.5671H225.192V74.3072H222.348V79.1157C222.348 79.6396 222.454 80.0449 222.666 80.3318C222.89 80.6063 223.214 80.7435 223.639 80.7435C223.863 80.7435 224.106 80.7123 224.368 80.6499C224.63 80.5751 224.873 80.4753 225.098 80.3505L225.584 81.9783C225.298 82.1779 224.961 82.3338 224.574 82.4461C224.2 82.5708 223.794 82.6332 223.358 82.6332ZM231.266 82.3525V72.5671H233.231L233.306 73.8768C233.592 73.3904 233.985 73.0037 234.484 72.7168C234.983 72.4299 235.551 72.2864 236.187 72.2864C236.873 72.2864 237.478 72.4611 238.002 72.8103C238.526 73.1471 238.931 73.6149 239.218 74.2136C239.405 73.8269 239.655 73.4901 239.966 73.2032C240.291 72.9164 240.665 72.6918 241.089 72.5297C241.526 72.3675 241.993 72.2864 242.492 72.2864C243.216 72.2864 243.846 72.4611 244.382 72.8103C244.918 73.1471 245.33 73.6336 245.617 74.2697C245.916 74.8934 246.066 75.6418 246.066 76.515V82.3525H243.914V76.7582C243.914 75.9474 243.74 75.3237 243.39 74.8872C243.041 74.4506 242.561 74.2323 241.95 74.2323C241.526 74.2323 241.145 74.3383 240.808 74.5504C240.484 74.75 240.222 75.0368 240.023 75.4111C239.835 75.7728 239.742 76.1844 239.742 76.6459V82.3525H237.59V76.7582C237.59 75.9474 237.416 75.3237 237.066 74.8872C236.717 74.4506 236.237 74.2323 235.626 74.2323C235.202 74.2323 234.821 74.3383 234.484 74.5504C234.16 74.75 233.898 75.0368 233.698 75.4111C233.511 75.7728 233.418 76.1844 233.418 76.6459V82.3525H231.266ZM252.933 82.6332C252.222 82.6332 251.561 82.5085 250.95 82.259C250.351 81.997 249.827 81.6353 249.378 81.1738C248.929 80.6998 248.58 80.151 248.331 79.5273C248.081 78.8912 247.956 78.1989 247.956 77.4505C247.956 76.7145 248.081 76.0347 248.331 75.4111C248.58 74.7749 248.929 74.2261 249.378 73.7646C249.84 73.2906 250.376 72.9288 250.987 72.6794C251.611 72.4174 252.285 72.2864 253.008 72.2864C253.719 72.2864 254.374 72.4174 254.973 72.6794C255.584 72.9288 256.114 73.2906 256.563 73.7646C257.012 74.2261 257.361 74.7687 257.611 75.3923C257.86 76.016 257.985 76.7021 257.985 77.4505C257.985 78.1989 257.86 78.8912 257.611 79.5273C257.361 80.151 257.006 80.6998 256.544 81.1738C256.095 81.6353 255.559 81.997 254.935 82.259C254.324 82.5085 253.657 82.6332 252.933 82.6332ZM252.971 80.6873C253.507 80.6873 253.987 80.5501 254.411 80.2757C254.836 79.9888 255.166 79.6021 255.403 79.1157C255.653 78.6292 255.777 78.0741 255.777 77.4505C255.777 76.8268 255.653 76.278 255.403 75.804C255.166 75.3175 254.836 74.9371 254.411 74.6626C253.987 74.3758 253.507 74.2323 252.971 74.2323C252.434 74.2323 251.954 74.3758 251.53 74.6626C251.106 74.9371 250.769 75.3175 250.52 75.804C250.283 76.278 250.164 76.8268 250.164 77.4505C250.164 78.0741 250.283 78.6292 250.52 79.1157C250.769 79.6021 251.106 79.9888 251.53 80.2757C251.954 80.5501 252.434 80.6873 252.971 80.6873ZM259.88 82.3525V72.5671H261.844L261.938 74.1762C262.187 73.6273 262.53 73.2032 262.967 72.9039C263.416 72.592 263.94 72.4361 264.538 72.4361C264.726 72.4361 264.906 72.4486 265.081 72.4736C265.256 72.4985 265.412 72.5422 265.549 72.6045L265.306 74.7001C265.168 74.6502 265.025 74.619 264.875 74.6065C264.726 74.5816 264.576 74.5691 264.426 74.5691C263.678 74.5691 263.092 74.8186 262.667 75.3175C262.243 75.8164 262.031 76.5087 262.031 77.3943V82.3525H259.88ZM271.388 82.6332C270.664 82.6332 269.997 82.5085 269.386 82.259C268.787 81.997 268.263 81.6353 267.814 81.1738C267.365 80.7123 267.016 80.1697 266.766 79.546C266.529 78.9099 266.411 78.2113 266.411 77.4505C266.411 76.7145 266.529 76.0347 266.766 75.4111C267.016 74.7874 267.353 74.2448 267.777 73.7833C268.213 73.3093 268.725 72.9413 269.311 72.6794C269.897 72.4174 270.533 72.2864 271.219 72.2864C271.905 72.2864 272.529 72.4112 273.09 72.6607C273.664 72.8976 274.157 73.2407 274.568 73.6897C274.993 74.1388 275.317 74.6751 275.541 75.2988C275.766 75.91 275.878 76.5898 275.878 77.3382V77.9744H268.637C268.7 78.5481 268.849 79.0471 269.086 79.4712C269.336 79.8828 269.654 80.2009 270.041 80.4254C270.427 80.6499 270.876 80.7622 271.388 80.7622C272.411 80.7622 273.209 80.3069 273.783 79.3963L275.672 80.126C275.448 80.6374 275.117 81.0865 274.681 81.4732C274.257 81.8474 273.758 82.1343 273.184 82.3338C272.623 82.5334 272.024 82.6332 271.388 82.6332ZM271.219 74.0265C270.783 74.0265 270.39 74.1263 270.041 74.3259C269.704 74.5254 269.417 74.8061 269.18 75.1678C268.943 75.5296 268.781 75.9536 268.693 76.4401H273.633C273.558 75.9536 273.415 75.5296 273.203 75.1678C272.991 74.8061 272.71 74.5254 272.361 74.3259C272.024 74.1263 271.643 74.0265 271.219 74.0265ZM281.696 82.3525V72.5671H283.661L283.754 74.1762C284.004 73.6273 284.347 73.2032 284.783 72.9039C285.232 72.592 285.756 72.4361 286.355 72.4361C286.542 72.4361 286.723 72.4486 286.897 72.4736C287.072 72.4985 287.228 72.5422 287.365 72.6045L287.122 74.7001C286.985 74.6502 286.841 74.619 286.692 74.6065C286.542 74.5816 286.392 74.5691 286.243 74.5691C285.494 74.5691 284.908 74.8186 284.484 75.3175C284.06 75.8164 283.848 76.5087 283.848 77.3943V82.3525H281.696ZM293.204 82.6332C292.481 82.6332 291.813 82.5085 291.202 82.259C290.603 81.997 290.08 81.6353 289.63 81.1738C289.181 80.7123 288.832 80.1697 288.583 79.546C288.346 78.9099 288.227 78.2113 288.227 77.4505C288.227 76.7145 288.346 76.0347 288.583 75.4111C288.832 74.7874 289.169 74.2448 289.593 73.7833C290.03 73.3093 290.541 72.9413 291.127 72.6794C291.714 72.4174 292.35 72.2864 293.036 72.2864C293.722 72.2864 294.345 72.4112 294.907 72.6607C295.481 72.8976 295.973 73.2407 296.385 73.6897C296.809 74.1388 297.133 74.6751 297.358 75.2988C297.582 75.91 297.695 76.5898 297.695 77.3382V77.9744H290.454C290.516 78.5481 290.666 79.0471 290.903 79.4712C291.152 79.8828 291.47 80.2009 291.857 80.4254C292.244 80.6499 292.693 80.7622 293.204 80.7622C294.227 80.7622 295.025 80.3069 295.599 79.3963L297.489 80.126C297.264 80.6374 296.934 81.0865 296.497 81.4732C296.073 81.8474 295.574 82.1343 295 82.3338C294.439 82.5334 293.84 82.6332 293.204 82.6332ZM293.036 74.0265C292.599 74.0265 292.206 74.1263 291.857 74.3259C291.52 74.5254 291.233 74.8061 290.996 75.1678C290.759 75.5296 290.597 75.9536 290.51 76.4401H295.449C295.375 75.9536 295.231 75.5296 295.019 75.1678C294.807 74.8061 294.526 74.5254 294.177 74.3259C293.84 74.1263 293.46 74.0265 293.036 74.0265ZM303.755 82.6332C303.107 82.6332 302.502 82.5022 301.941 82.2403C301.392 81.9783 300.912 81.6166 300.5 81.1551C300.088 80.6936 299.764 80.151 299.527 79.5273C299.302 78.9036 299.19 78.2301 299.19 77.5066C299.19 76.7707 299.309 76.0846 299.546 75.4485C299.783 74.8123 300.113 74.2573 300.537 73.7833C300.961 73.3093 301.454 72.9413 302.015 72.6794C302.589 72.4174 303.207 72.2864 303.868 72.2864C304.554 72.2864 305.171 72.4361 305.72 72.7355C306.281 73.0349 306.73 73.459 307.067 74.0078L307.161 72.5671H309.125V86.0572H306.974V80.9306C306.624 81.4669 306.169 81.8848 305.608 82.1841C305.047 82.4835 304.429 82.6332 303.755 82.6332ZM304.205 80.6873C304.741 80.6873 305.221 80.5501 305.645 80.2757C306.069 79.9888 306.4 79.6021 306.637 79.1157C306.886 78.6292 307.011 78.0804 307.011 77.4692C307.011 76.8455 306.886 76.2904 306.637 75.804C306.4 75.3175 306.069 74.9371 305.645 74.6626C305.221 74.3758 304.741 74.2323 304.205 74.2323C303.668 74.2323 303.188 74.3758 302.764 74.6626C302.34 74.9371 302.003 75.3175 301.754 75.804C301.517 76.2904 301.398 76.8455 301.398 77.4692C301.398 78.0804 301.517 78.6292 301.754 79.1157C302.003 79.6021 302.34 79.9888 302.764 80.2757C303.188 80.5501 303.668 80.6873 304.205 80.6873ZM315.746 82.6332C314.873 82.6332 314.112 82.4461 313.463 82.0719C312.827 81.6977 312.328 81.1676 311.966 80.4815C311.617 79.783 311.442 78.966 311.442 78.0305V72.5671H313.594V78.0679C313.594 78.8787 313.787 79.5211 314.174 79.9951C314.561 80.4566 315.091 80.6873 315.764 80.6873C316.438 80.6873 316.968 80.4566 317.355 79.9951C317.741 79.5211 317.935 78.8787 317.935 78.0679V72.5671H320.086V78.0305C320.086 78.9535 319.906 79.7643 319.544 80.4628C319.195 81.1488 318.696 81.6852 318.047 82.0719C317.398 82.4461 316.631 82.6332 315.746 82.6332ZM326.952 82.6332C326.228 82.6332 325.561 82.5085 324.95 82.259C324.351 81.997 323.827 81.6353 323.378 81.1738C322.929 80.7123 322.58 80.1697 322.33 79.546C322.093 78.9099 321.975 78.2113 321.975 77.4505C321.975 76.7145 322.093 76.0347 322.33 75.4111C322.58 74.7874 322.917 74.2448 323.341 73.7833C323.777 73.3093 324.289 72.9413 324.875 72.6794C325.461 72.4174 326.097 72.2864 326.784 72.2864C327.47 72.2864 328.093 72.4112 328.655 72.6607C329.228 72.8976 329.721 73.2407 330.133 73.6897C330.557 74.1388 330.881 74.6751 331.106 75.2988C331.33 75.91 331.442 76.5898 331.442 77.3382V77.9744H324.202C324.264 78.5481 324.414 79.0471 324.651 79.4712C324.9 79.8828 325.218 80.2009 325.605 80.4254C325.991 80.6499 326.441 80.7622 326.952 80.7622C327.975 80.7622 328.773 80.3069 329.347 79.3963L331.237 80.126C331.012 80.6374 330.681 81.0865 330.245 81.4732C329.821 81.8474 329.322 82.1343 328.748 82.3338C328.187 82.5334 327.588 82.6332 326.952 82.6332ZM326.784 74.0265C326.347 74.0265 325.954 74.1263 325.605 74.3259C325.268 74.5254 324.981 74.8061 324.744 75.1678C324.507 75.5296 324.345 75.9536 324.258 76.4401H329.197C329.122 75.9536 328.979 75.5296 328.767 75.1678C328.555 74.8061 328.274 74.5254 327.925 74.3259C327.588 74.1263 327.208 74.0265 326.784 74.0265ZM336.699 82.6332C336.063 82.6332 335.471 82.5272 334.922 82.3151C334.385 82.1031 333.924 81.8037 333.537 81.417C333.163 81.0179 332.895 80.5501 332.733 80.0138L334.679 79.5086C334.841 79.9327 335.103 80.2632 335.464 80.5002C335.826 80.7372 336.244 80.8557 336.718 80.8557C337.204 80.8557 337.604 80.7435 337.915 80.5189C338.227 80.2819 338.383 79.9826 338.383 79.6208C338.383 79.309 338.258 79.0471 338.009 78.835C337.759 78.623 337.354 78.4671 336.793 78.3673L336.175 78.255C335.128 78.0679 334.335 77.7311 333.799 77.2447C333.275 76.7582 333.013 76.1345 333.013 75.3736C333.013 74.7624 333.169 74.2261 333.481 73.7646C333.793 73.303 334.223 72.9413 334.772 72.6794C335.321 72.4174 335.951 72.2864 336.662 72.2864C337.273 72.2864 337.834 72.3925 338.346 72.6045C338.857 72.8166 339.287 73.1159 339.637 73.5026C339.986 73.8893 340.235 74.3446 340.385 74.8685L338.458 75.3362C338.308 74.9371 338.071 74.6252 337.747 74.4007C337.435 74.1637 337.067 74.0452 336.643 74.0452C336.207 74.0452 335.845 74.1575 335.558 74.382C335.271 74.594 335.128 74.8685 335.128 75.2052C335.128 75.4921 335.252 75.7291 335.502 75.9162C335.764 76.1033 336.2 76.253 336.811 76.3653L337.429 76.4775C338.427 76.6522 339.194 76.9952 339.73 77.5066C340.267 78.018 340.535 78.6542 340.535 79.415C340.535 79.8766 340.441 80.3069 340.254 80.706C340.067 81.0927 339.799 81.4357 339.45 81.7351C339.113 82.022 338.707 82.2403 338.233 82.39C337.772 82.5521 337.261 82.6332 336.699 82.6332ZM346.235 82.6332C345.25 82.6332 344.476 82.3525 343.915 81.7912C343.354 81.2175 343.073 80.4004 343.073 79.3402V74.3072H341.352V72.5671H343.073V69.2554H345.225V72.5671H348.069V74.3072H345.225V79.1157C345.225 79.6396 345.331 80.0449 345.543 80.3318C345.767 80.6063 346.092 80.7435 346.516 80.7435C346.74 80.7435 346.983 80.7123 347.245 80.6499C347.507 80.5751 347.751 80.4753 347.975 80.3505L348.461 81.9783C348.175 82.1779 347.838 82.3338 347.451 82.4461C347.077 82.5708 346.672 82.6332 346.235 82.6332Z" fill="white"/>
<path d="M53.2133 67.9243C52.6784 68.4592 51.8112 68.4592 51.2763 67.9243L41.8309 58.4789C41.296 57.944 40.4288 57.944 39.8939 58.4789L37.9685 60.4042C37.4336 60.9391 37.4336 61.8064 37.9685 62.3413L51.2763 75.649C51.8112 76.1839 52.6784 76.1839 53.2133 75.649L84.0315 44.8309C84.5664 44.296 84.5664 43.4288 84.0315 42.8939L82.1061 40.9685C81.5712 40.4336 80.704 40.4336 80.1691 40.9685L53.2133 67.9243Z" fill="#27AE60"/>
<defs>
<linearGradient id="paint0_linear_1036_2474" x1="182" y1="0" x2="182" y2="115" gradientUnits="userSpaceOnUse">
<stop stop-color="#27AE60"/>
<stop offset="1" stop-color="#0B7C3B"/>
</linearGradient>
</defs>
</svg>
