<svg width="191" height="191" viewBox="0 0 191 191" fill="none" xmlns="http://www.w3.org/2000/svg">
<path d="M167.357 50.6492H135.722V43.1882C135.722 40.4181 134.622 37.7608 132.663 35.8019C130.704 33.8429 128.047 32.7429 125.277 32.7429H65.5892C62.8192 32.7429 60.1618 33.8429 58.203 35.8019C56.2439 37.761 55.144 40.4181 55.144 43.1882V50.6492H23.5089C22.3215 50.6492 21.1832 51.1203 20.3432 51.9602C19.5033 52.8001 19.0322 53.9384 19.0322 55.1259V87.9533C19.0333 95.1243 22.4738 101.859 28.2837 106.062V147.64C28.2837 150.41 29.3837 153.067 31.3427 155.026C33.3018 156.985 35.9589 158.085 38.729 158.085H152.134C154.904 158.085 157.561 156.985 159.52 155.026C161.479 153.067 162.579 150.41 162.579 147.64V106.062C168.389 101.859 171.83 95.1243 171.831 87.9533V55.1259C171.831 53.9385 171.359 52.8002 170.52 51.9602C169.68 51.1203 168.541 50.6492 167.354 50.6492H167.357ZM64.097 43.1882C64.097 42.3643 64.7652 41.696 65.5892 41.696H125.277C125.672 41.696 126.052 41.8526 126.332 42.133C126.612 42.4133 126.769 42.7927 126.769 43.1882V50.6492H64.0963L64.097 43.1882ZM153.627 147.641C153.627 148.036 153.47 148.415 153.19 148.696C152.91 148.976 152.53 149.133 152.135 149.133H38.7298C37.9059 149.133 37.2376 148.465 37.2376 147.641V109.94C38.6146 110.202 40.0142 110.335 41.4155 110.336H58.6088C61.4738 128.078 76.8946 141.671 95.4336 141.671C113.973 141.671 129.393 128.078 132.258 110.336H149.452C150.853 110.335 152.253 110.202 153.63 109.94L153.627 147.641ZM67.0793 104.368C67.0793 96.8485 70.0657 89.6372 75.3834 84.3206C80.6998 79.0031 87.9114 76.0164 95.4311 76.0164C102.951 76.0164 110.162 79.0028 115.479 84.3206C120.796 89.6369 123.783 96.8485 123.783 104.368C123.783 111.888 120.796 119.099 115.479 124.416C110.162 129.733 102.951 132.72 95.4311 132.72C87.9147 132.711 80.7085 129.722 75.393 124.406C70.0774 119.091 67.0877 111.885 67.0793 104.368ZM162.877 87.9542C162.872 91.5153 161.457 94.9282 158.938 97.4455C156.421 99.9641 153.008 101.38 149.447 101.384H132.615C131.607 88.8047 124.307 77.5889 113.213 71.5743C102.121 65.5586 88.7384 65.5586 77.6465 71.5743C66.5532 77.59 59.2532 88.8058 58.245 101.384H41.413C37.8519 101.38 34.439 99.9643 31.9216 97.4455C29.403 94.928 27.9876 91.5153 27.9832 87.9542V59.6016H162.878L162.877 87.9542Z" fill="#DFDFDF"/>
<path d="M80.3289 119.472C81.1688 120.312 82.3082 120.784 83.4954 120.784C84.6826 120.784 85.8222 120.312 86.6619 119.472L95.4329 110.698L104.204 119.472C105.336 120.603 106.985 121.045 108.529 120.63C110.075 120.217 111.282 119.009 111.696 117.464C112.11 115.919 111.668 114.27 110.537 113.138L101.763 104.367L110.537 95.5964C111.668 94.4645 112.11 92.8157 111.696 91.2711C111.282 89.7256 110.075 88.518 108.529 88.1046C106.985 87.69 105.336 88.1323 104.204 89.2632L95.4329 98.0372L86.6619 89.2632C85.53 88.1323 83.8812 87.69 82.3366 88.1046C80.7911 88.5181 79.5835 89.7257 79.1701 91.2711C78.7555 92.8155 79.1978 94.4643 80.3287 95.5964L89.1027 104.367L80.3287 113.138C79.4888 113.978 79.0166 115.118 79.0166 116.305C79.0166 117.492 79.4888 118.632 80.3287 119.471L80.3289 119.472Z" fill="#DFDFDF"/>
</svg>
