<svg width="26" height="26" viewBox="0 0 26 26" fill="none" xmlns="http://www.w3.org/2000/svg">
<path fill-rule="evenodd" clip-rule="evenodd" d="M14.0829 15.3516C15.3452 15.7977 16.2496 17.0016 16.2496 18.4168C16.2496 19.8318 15.3452 21.0356 14.0829 21.4818V24.916C14.0829 25.5152 13.598 26 12.9997 26C12.3972 26 11.9164 25.5147 11.9164 24.916V21.4818C10.6541 21.0356 9.74971 19.8318 9.74971 18.4168C9.74971 17.0016 10.6541 15.7978 11.9164 15.3516V1.08423C11.9164 0.485034 12.4014 0.00023214 12.9997 0.00023214C13.6022 0.00023214 14.0829 0.485545 14.0829 1.08423V15.3516ZM21.6665 10.6484C20.4042 10.2023 19.4998 8.99841 19.4998 7.58324C19.4998 6.16825 20.4042 4.96442 21.6665 4.51824V1.084C21.6665 0.485313 22.1473 0 22.7498 0C23.3481 0 23.833 0.484756 23.833 1.084V4.51824C25.0953 4.96439 25.9997 6.16825 25.9997 7.58324C25.9997 8.99837 25.0953 10.2022 23.833 10.6484V24.9158C23.833 25.5145 23.3523 25.9998 22.7498 25.9998C22.1514 25.9998 21.6665 25.515 21.6665 24.9158V10.6484ZM2.16671 10.6484C0.904419 10.2023 0 8.99841 0 7.58324C0 6.16825 0.904419 4.96442 2.16671 4.51824V1.084C2.16671 0.485313 2.64747 0 3.24997 0C3.84828 0 4.33323 0.484756 4.33323 1.084V4.51824C5.59551 4.96439 6.49993 6.16825 6.49993 7.58324C6.49993 8.99837 5.59551 10.2022 4.33323 10.6484V24.9158C4.33323 25.5145 3.85246 25.9998 3.24997 25.9998C2.65165 25.9998 2.16671 25.515 2.16671 24.9158V10.6484ZM4.33323 7.58324C4.33323 6.98492 3.84828 6.49998 3.24997 6.49998C2.65165 6.49998 2.16671 6.98492 2.16671 7.58324C2.16671 8.18156 2.65165 8.66668 3.24997 8.66668C3.84828 8.66668 4.33323 8.18156 4.33323 7.58324ZM23.833 7.58324C23.833 6.98492 23.3481 6.49998 22.7498 6.49998C22.1514 6.49998 21.6665 6.98492 21.6665 7.58324C21.6665 8.18156 22.1514 8.66668 22.7498 8.66668C23.3481 8.66668 23.833 8.18156 23.833 7.58324ZM14.0831 18.4168C14.0831 17.8184 13.5982 17.3333 12.9999 17.3333C12.4015 17.3333 11.9166 17.8184 11.9166 18.4168C11.9166 19.0151 12.4015 19.5 12.9999 19.5C13.5982 19.5 14.0831 19.0151 14.0831 18.4168Z" fill="white"/>
</svg>
