<svg width="17" height="17" viewBox="0 0 17 17" fill="none" xmlns="http://www.w3.org/2000/svg">
<path d="M8.5 0C3.8131 0 0 3.8131 0 8.5C0 13.1869 3.8131 17 8.5 17C13.1869 17 17 13.1869 17 8.5C17 3.8131 13.1869 0 8.5 0ZM7.97054 9.47278C8.19702 9.47278 8.45693 9.41743 8.45693 8.98639V6.09582C8.45693 5.83497 8.6683 5.6236 8.92916 5.6236C9.19001 5.6236 9.40138 5.83497 9.40138 6.09582V8.98639C9.40138 9.84225 8.8264 10.4172 7.97054 10.4172C7.70969 10.4172 7.49832 10.2059 7.49832 9.945C7.49832 9.68414 7.70969 9.47278 7.97054 9.47278ZM4.85104 7.46961V6.09582C4.85104 5.83497 5.06241 5.6236 5.32327 5.6236C5.58412 5.6236 5.79549 5.83497 5.79549 6.09582V7.46961C5.79549 7.73047 5.58412 7.94183 5.32327 7.94183C5.06241 7.94183 4.85104 7.73047 4.85104 7.46961ZM11.6673 12.0964C10.8213 12.9425 9.69642 13.4083 8.5 13.4083C7.30358 13.4083 6.17874 12.9423 5.33271 12.0964C5.14817 11.9119 5.14817 11.6129 5.33271 11.4287C5.51707 11.2442 5.81627 11.2442 6.00043 11.4287C6.66797 12.0963 7.55556 12.4638 8.49981 12.4638C9.44388 12.4638 10.3317 12.0963 10.9992 11.4287C11.1837 11.2442 11.4826 11.2442 11.6669 11.4287C11.8513 11.6133 11.8516 11.9119 11.6673 12.0964ZM12.149 7.46961C12.149 7.73047 11.9376 7.94183 11.6767 7.94183C11.4159 7.94183 11.2045 7.73047 11.2045 7.46961V6.09582C11.2045 5.83497 11.4159 5.6236 11.6767 5.6236C11.9376 5.6236 12.149 5.83497 12.149 6.09582V7.46961Z" fill="#FF8E1B"/>
</svg>
