<svg width="17" height="18" viewBox="0 0 17 18" fill="none" xmlns="http://www.w3.org/2000/svg">
<path d="M8.26985 0.00312036C6.05313 0.0631257 3.94763 0.987066 2.40261 2.57778C0.857589 4.1685 -0.00459726 6.30002 1.84373e-05 8.51755C-2.78539e-05 9.63381 0.219796 10.7392 0.64694 11.7705C1.07408 12.8018 1.70018 13.7389 2.48948 14.5282C3.27878 15.3175 4.21583 15.9437 5.24712 16.3709C6.27841 16.798 7.38374 17.0179 8.5 17.0179C9.61626 17.0179 10.7216 16.798 11.7529 16.3709C12.7842 15.9437 13.7212 15.3175 14.5105 14.5282C15.2998 13.7389 15.9259 12.8018 16.3531 11.7705C16.7802 10.7392 17 9.63381 17 8.51755C17.0023 7.38046 16.7765 6.25449 16.3359 5.20624C15.8953 4.15799 15.2488 3.20879 14.4348 2.41487C13.6208 1.62094 12.6557 0.998423 11.5968 0.584165C10.5378 0.169906 9.40652 -0.0276882 8.26985 0.00312036ZM8.50003 0.790619V16.2445C6.46258 16.2264 4.51473 15.4044 3.08039 13.9573C1.64605 12.5102 0.841305 10.5551 0.841305 8.51755C0.841305 6.48002 1.64605 4.52498 3.08039 3.07786C4.51473 1.63074 6.46258 0.808694 8.50003 0.790619Z" fill="#FF8E1B"/>
</svg>
