<svg width="24" height="24" viewBox="0 0 24 24" fill="none" xmlns="http://www.w3.org/2000/svg">
<path d="M10.1861 1.94076C11.1675 0.890784 12.8325 0.890783 13.8139 1.94076L14.6739 2.86092C15.1633 3.3846 15.8552 3.67119 16.5716 3.64698L17.8304 3.60444C19.2667 3.5559 20.4441 4.7333 20.3956 6.16964L20.353 7.4284C20.3288 8.14479 20.6154 8.83669 21.1391 9.32613L22.0592 10.1861C23.1092 11.1675 23.1092 12.8325 22.0592 13.8139L21.1391 14.6739C20.6154 15.1633 20.3288 15.8552 20.353 16.5716L20.3956 17.8304C20.4441 19.2667 19.2667 20.4441 17.8304 20.3956L16.5716 20.353C15.8552 20.3288 15.1633 20.6154 14.6739 21.1391L13.8139 22.0592C12.8325 23.1092 11.1675 23.1092 10.1861 22.0592L9.32613 21.1391C8.83669 20.6154 8.14479 20.3288 7.4284 20.353L6.16964 20.3956C4.7333 20.4441 3.5559 19.2667 3.60444 17.8304L3.64698 16.5716C3.67119 15.8552 3.3846 15.1633 2.86092 14.6739L1.94076 13.8139C0.890784 12.8325 0.890783 11.1675 1.94076 10.1861L2.86092 9.32613C3.3846 8.83669 3.67119 8.14479 3.64698 7.4284L3.60444 6.16964C3.5559 4.7333 4.7333 3.5559 6.16964 3.60444L7.4284 3.64698C8.14479 3.67119 8.83669 3.3846 9.32613 2.86092L10.1861 1.94076Z" fill="url(#paint0_linear_738_2075)"/>
<path d="M10.559 14.0615C10.45 14.1705 10.2733 14.1705 10.1644 14.0615L8.23989 12.1371C8.13091 12.0281 7.95421 12.0281 7.84523 12.1371L7.45295 12.5293C7.34396 12.6383 7.34396 12.815 7.45295 12.924L10.1644 15.6354C10.2733 15.7444 10.45 15.7444 10.559 15.6354L16.8381 9.35635C16.9471 9.24736 16.9471 9.07067 16.8381 8.96168L16.4458 8.5694C16.3368 8.46042 16.1601 8.46042 16.0511 8.5694L10.559 14.0615Z" fill="white"/>
<defs>
<linearGradient id="paint0_linear_738_2075" x1="12" y1="0" x2="12" y2="24" gradientUnits="userSpaceOnUse">
<stop stop-color="#27AE60"/>
<stop offset="1" stop-color="#0B7C3B"/>
</linearGradient>
</defs>
</svg>
